<?xml version="1.0" encoding="utf-8"?>
<!-- Generator: Adobe Illustrator 22.1.0, SVG Export Plug-In . SVG Version: 6.00 Build 0)  -->
<svg version="1.1" id="Слой_1" xmlns="http://www.w3.org/2000/svg" xmlns:xlink="http://www.w3.org/1999/xlink" x="0px" y="0px"
	 viewBox="0 0 335 335" style="enable-background:new 0 0 335 335;" xml:space="preserve">
<style type="text/css">
	.st0{fill:#FF3615;}
	.st1{fill:#FFC817;}
	.st2{fill:none;stroke:#FFFFFF;stroke-width:5;stroke-miterlimit:10;}
	.st3{fill:#FFC817;stroke:#FFFFFF;stroke-width:5;stroke-linecap:round;stroke-linejoin:round;stroke-miterlimit:10;}
</style>
<g id="XMLID_1_">
	<g>
		<path class="st0" d="M234.6,104c10,0,17.7,8.7,16.4,18.6l-11.8,93.9c-1.1,8.3-8.1,14.5-16.4,14.5h-5.2v-0.4l3.9-63.6
			c1.3-1.7,2.3-3.2,2.9-4.5c3.2-6.6,2.5-14.1-1.2-19.9l2.4-38.2V104H234.6z"/>
		<path class="st1" d="M223.1,142.7c3.7,5.8,4.4,13.2,1.2,19.9c-0.6,1.3-1.6,2.8-2.9,4.5c-5.3,7.1-15.4,17.3-23,24.7
			c-5.5,5.4-9.7,9.3-9.7,9.3s-4.4-3.9-10.3-9.3c-7.8-7.2-18.2-17.2-23.7-24.3c-1.5-1.9-2.6-3.5-3.3-4.9c-3.2-6.6-2.5-14.1,1.2-19.9
			c2-3.1,4.8-5.7,8.3-7.4c5-2.4,10.5-2.6,15.4-1c4.8,1.6,9,5,11.5,9.8c2.5-4.7,6.6-8.1,11.3-9.7c4.9-1.7,10.5-1.5,15.5,0.9
			C218.3,137,221.1,139.6,223.1,142.7z"/>
		<path class="st0" d="M199.5,104v0.5l-0.2,29.9c-4.7,1.6-8.8,5-11.3,9.7c-2.5-4.8-6.7-8.2-11.5-9.8l-0.9-29.9V104H199.5z"/>
		<path class="st0" d="M198.5,230.4v0.6h-19v-0.5l-1-38.8c5.8,5.4,10.3,9.3,10.3,9.3s4.2-3.9,9.7-9.3L198.5,230.4z"/>
		<path class="st0" d="M160.2,230.4v0.6h-6.4c-8.3,0-15.3-6.1-16.4-14.4l-12.6-93.9c-1.3-9.9,6.4-18.8,16.4-18.8h8.2v0.5l3.3,38.2
			c-3.7,5.8-4.4,13.3-1.2,19.9c0.6,1.3,1.8,3,3.3,4.9l-0.1,0.1L160.2,230.4z"/>
	</g>
	<g>
		<path class="st2" d="M223.1,142.7c-2-3.1-4.8-5.7-8.3-7.4c-5-2.4-10.6-2.6-15.5-0.9c-4.7,1.6-8.8,5-11.3,9.7
			c-2.5-4.8-6.7-8.2-11.5-9.8c-4.9-1.7-10.4-1.5-15.4,1c-3.5,1.7-6.3,4.3-8.3,7.4c-3.7,5.8-4.4,13.3-1.2,19.9c0.6,1.3,1.8,3,3.3,4.9
			c5.5,7,15.9,17,23.7,24.3c5.8,5.4,10.3,9.3,10.3,9.3s4.2-3.9,9.7-9.3c7.6-7.4,17.7-17.7,23-24.7c1.3-1.7,2.3-3.2,2.9-4.5
			C227.5,155.9,226.8,148.4,223.1,142.7z"/>
	</g>
</g>
<path class="st1" d="M132.5,103.5c-2,1.4-4.7,0.6-5.6-1.6c-1.4-3.5-2.3-8.7,1.1-12.9c4.9-6,9.4-6.5,12.6-5.6c2.3,0.7,4.6-1,4.7-3.4
	c0.1-2,0.5-3.9,1.7-5c4.4-4.1,9.3-2.9,12.5-1.3c1.7,0.9,3.8,0.3,4.8-1.4c1.3-2.3,3.8-4.8,8.7-5.4c11.9-1.3,12,7,12,7s0-8.3,8-9
	c5.7-0.5,8.3,1.6,9.4,3.8c0.9,1.9,3.1,2.7,5,1.8c1.9-0.9,4.2-1.5,6.6-0.6c4.5,1.5,6.9,3.8,8,5.8c1,1.8,3.2,2.5,5.1,1.6
	c2-1.1,4.7-1.7,8-0.4c1.6,0.7,2.1,2.7,2.2,4.6c0.1,1.8,1.4,3.3,3.2,3.5c2.8,0.4,6.6,1.7,7.6,5.9c1.1,4.5,1.9,7.5,1,10
	c-0.5,1.5-1.9,3.3-3.7,3.3c-0.7,0-1.3-0.3-1.9-0.7c-1-0.9-3.5-2.5-6.4-2.5l-99.9,0c-0.7,0-1.4,0.2-2,0.6L132.5,103.5z"/>
<path class="st3" d="M177.5,95.5c0,0-6-6,3-10c2.2-1,8,5,8,5s-3.4-12,7-12c8,0,9,9,9,9s6.6-10.9,14-5c5,4-1,9-1,9"/>
<path class="st3" d="M139.5,95.5c0,0-1.2-4.7,4-6c4-1,6,4,6,4s3.2-10.2,12-8c8,2,6,9,6,9"/>
<path class="st3" d="M171.9,148.1c0,0-4.3-2.8-7.3,0.6c-3.2,3.5-0.6,6.9-0.6,6.9"/>
</svg>
